<svg width="116" height="116" viewBox="0 0 116 116" fill="none" xmlns="http://www.w3.org/2000/svg">
<circle cx="58" cy="58" r="58" fill="white"/>
<path d="M57.8613 27.6479C57.8613 27.6479 43.9173 36.9439 43.9173 57.8599C43.9173 58.229 43.949 58.5988 43.9718 58.9674C41.5686 60.9104 36.9453 65.0724 36.9453 68.4222C36.9453 72.6496 41.1712 81.0998 41.1712 81.0998L48.8422 71.5088L50.8893 76.4518H64.8333L66.8804 71.5088L74.5514 81.0998C74.5514 81.0998 78.7772 72.6496 78.7772 68.4222C78.7772 65.0724 74.1539 60.9104 71.7508 58.9674C71.7735 58.5988 71.8052 58.229 71.8052 57.8599C71.8052 36.9439 57.8613 27.6479 57.8613 27.6479ZM57.8613 43.9159C60.4293 43.9159 62.5093 45.9959 62.5093 48.5639C62.5093 51.1319 60.4293 53.2119 57.8613 53.2119C55.2933 53.2119 53.2133 51.1319 53.2133 48.5639C53.2133 45.9959 55.2933 43.9159 57.8613 43.9159ZM51.8606 78.7758C51.2587 79.552 50.8893 80.444 50.8893 81.4085C50.8893 85.831 57.8613 90.3958 57.8613 90.3958C57.8613 90.3958 64.8333 85.8915 64.8333 81.4085C64.8333 80.444 64.466 79.5544 63.8664 78.7758H61.901C61.9429 78.9548 62.0463 79.1141 62.0463 79.3024C62.0463 82.4607 57.8613 84.0411 57.8613 84.0411C57.8613 84.0411 53.6763 82.4607 53.6763 79.3024C53.6763 79.1164 53.7797 78.9548 53.8215 78.7758H51.8606Z" fill="url(#paint0_linear)"/>
<defs>
<linearGradient id="paint0_linear" x1="57.8613" y1="27.6479" x2="57.8613" y2="90.3958" gradientUnits="userSpaceOnUse">
<stop stop-color="#002D8B"/>
<stop offset="1" stop-color="#17CFFF"/>
</linearGradient>
</defs>
</svg>
