<svg width="116" height="117" viewBox="0 0 116 117" fill="none" xmlns="http://www.w3.org/2000/svg">
<ellipse cx="58" cy="58.3227" rx="58" ry="57.6862" fill="white"/>
<path d="M45.3894 43.5072C42.8881 43.5072 40.6733 44.839 39.459 46.8277C40.7415 46.3716 42.2696 46.0614 44.116 46.0614C47.8725 46.0614 50.4876 47.8995 52.3385 49.7103C51.9474 46.18 49.0322 43.5072 45.3894 43.5072ZM71.003 43.5072C67.2919 43.5072 64.3494 46.294 64.0538 49.9292C65.9321 48.0455 68.629 46.0614 72.5311 46.0614C74.2411 46.0614 75.6373 46.3442 76.8606 46.7547C75.6373 44.8117 73.4725 43.5072 71.003 43.5072ZM44.116 48.3967C37.0895 48.3967 35.7843 52.9122 35.093 55.293C34.2153 57.9978 32.7827 63.4072 31.6366 67.9181C34.0834 65.8109 37.2624 64.5247 40.7324 64.5247C48.4365 64.5247 54.7034 70.8099 54.7034 78.5363C54.7034 79.1202 54.6625 79.6857 54.5943 80.2513C54.617 80.2604 54.6398 80.2787 54.667 80.2878C54.7853 80.3288 54.9081 80.3562 55.0309 80.3973C55.1628 80.4383 55.2946 80.4702 55.4311 80.5067C55.5812 80.5432 55.7449 80.5843 55.9041 80.6162C56.0314 80.6436 56.136 80.7029 56.2679 80.7257C56.4589 80.7576 56.6499 80.7758 56.85 80.7986C56.9637 80.8123 57.1002 80.826 57.2138 80.8351C57.5367 80.8625 57.8505 80.8716 58.1962 80.8716C58.5418 80.8716 58.8602 80.8625 59.1785 80.8351C59.2922 80.826 59.3968 80.8123 59.506 80.7986C59.7106 80.7758 59.9335 80.7576 60.1245 80.7257C60.2518 80.7029 60.3655 80.6436 60.4883 80.6162C60.6475 80.5843 60.8112 80.5432 60.9613 80.5067C61.0977 80.4702 61.2342 80.4383 61.3615 80.3973C61.4888 80.3608 61.6071 80.3334 61.7253 80.2878C61.7481 80.2787 61.7708 80.2559 61.7981 80.2513C61.7299 79.6857 61.6889 79.1202 61.6889 78.5363C61.6889 70.8099 67.9559 64.5247 75.66 64.5247C79.2528 64.5247 82.5318 65.893 85.0104 68.1371C83.8371 63.5851 82.3863 58.0525 81.554 55.293C80.7036 52.7252 79.271 48.3967 72.5311 48.3967C68.3152 48.3967 65.7638 51.366 64.0902 53.3227C63.7309 53.7423 63.2989 54.3033 62.9987 54.5633C61.6344 53.5553 59.9244 52.9578 58.3053 52.9578C56.5999 52.9578 54.8217 53.5872 53.6119 54.5633C53.3072 54.3079 52.8206 53.7286 52.4477 53.2862C50.7968 51.3431 48.3046 48.3967 44.116 48.3967ZM40.7324 66.86C36.1117 66.86 32.1324 69.5829 30.2541 73.5009C29.8994 74.2444 29.6128 75.0243 29.4173 75.8362C29.4082 75.8727 29.39 75.9092 29.3809 75.9456C29.299 76.3014 29.2445 76.6709 29.199 77.0403C29.1899 77.1133 29.1717 77.1863 29.1626 77.2592C29.1126 77.6789 29.0898 78.0985 29.0898 78.5363C29.0898 84.9766 34.3108 90.2127 40.7324 90.2127C41.128 90.2127 41.5101 90.1762 41.8966 90.1397C42.0922 90.1169 42.2878 90.0941 42.4788 90.0668C42.6652 90.0394 42.8426 90.0303 43.0245 89.9938C43.2837 89.9391 43.5339 89.8433 43.7885 89.7749C43.8931 89.7475 44.0114 89.7338 44.116 89.7019C44.4162 89.6107 44.7027 89.524 44.9892 89.41C45.0392 89.3872 45.1165 89.3598 45.1711 89.337C45.494 89.2047 45.8078 89.0633 46.1171 88.8991C46.1307 88.89 46.1398 88.8718 46.1534 88.8626C49.7008 86.9835 52.1475 83.3392 52.3385 79.0837C52.3476 78.9058 52.3749 78.7142 52.3749 78.5363C52.3749 72.087 47.1631 66.86 40.7324 66.86ZM75.66 66.86C69.2384 66.86 64.0175 72.0961 64.0175 78.5363C64.0175 78.7142 64.0493 78.9058 64.0538 79.0837C64.1402 81.013 64.6678 82.7964 65.5819 84.3745C65.591 84.3882 65.6092 84.4019 65.6183 84.411C65.7911 84.7121 65.9639 85.004 66.164 85.2868C66.1822 85.3096 66.2186 85.3369 66.2368 85.3597C66.4278 85.6288 66.6416 85.8751 66.8553 86.126C66.8917 86.167 66.9235 86.2309 66.9645 86.2719C67.1646 86.4954 67.3692 86.7189 67.583 86.9287C67.6285 86.9744 67.683 87.0336 67.7285 87.0747C67.9423 87.2799 68.1515 87.4715 68.3834 87.6585C68.4607 87.7224 68.5562 87.7771 68.6381 87.841C68.8473 88.0006 69.0383 88.1374 69.2566 88.2788C69.3657 88.3518 69.4749 88.4293 69.584 88.4978C69.7841 88.6209 69.9934 88.7486 70.2026 88.8626C70.3435 88.9356 70.4891 88.9721 70.6391 89.0451C70.8256 89.1363 71.0303 89.2595 71.2213 89.337C71.4032 89.41 71.5806 89.451 71.767 89.5194C71.9353 89.5787 72.0717 89.6517 72.24 89.7019C72.4265 89.7612 72.6311 89.8022 72.8221 89.8478C72.9904 89.8889 73.195 89.9573 73.3679 89.9938C73.4952 90.0212 73.5998 90.012 73.7317 90.0303C73.8636 90.0531 74 90.085 74.1319 90.1033C74.2456 90.1215 74.3775 90.1261 74.4957 90.1397C74.8823 90.1717 75.2643 90.2127 75.66 90.2127C82.0816 90.2127 87.3025 84.9766 87.3025 78.5363C87.3025 78.1715 87.2616 77.8339 87.2298 77.4782C87.2161 77.3459 87.2116 77.2091 87.1934 77.0768C87.1706 76.867 87.157 76.6617 87.1206 76.4565C87.0933 76.2923 87.0478 76.1418 87.0115 75.9821C86.9751 75.8088 86.9114 75.6036 86.8659 75.4348C86.8205 75.266 86.775 75.1247 86.7204 74.9605C85.206 70.2717 80.8264 66.86 75.66 66.86ZM58.1962 69.1952C59.4832 69.1952 60.5247 70.2397 60.5247 71.5305C60.5247 72.8213 59.4832 73.8658 58.1962 73.8658C56.9137 73.8658 55.8677 72.8213 55.8677 71.5305C55.8677 70.2397 56.9137 69.1952 58.1962 69.1952ZM34.9111 77.3687C35.5524 77.3687 36.0754 77.8887 36.0754 78.5363C36.0754 81.1544 38.1219 83.2069 40.7324 83.2069C41.3736 83.2069 41.8966 83.7269 41.8966 84.3745C41.8966 85.0222 41.3736 85.5422 40.7324 85.5422C36.8167 85.5422 33.7469 82.4634 33.7469 78.5363C33.7469 77.8887 34.2699 77.3687 34.9111 77.3687ZM71.003 77.3687C71.6488 77.3687 72.1672 77.8887 72.1672 78.5363C72.1672 81.1544 74.2138 83.2069 76.8242 83.2069C77.47 83.2069 77.9885 83.7269 77.9885 84.3745C77.9885 85.0222 77.47 85.5422 76.8242 85.5422C72.9085 85.5422 69.8387 82.4634 69.8387 78.5363C69.8387 77.8887 70.3572 77.3687 71.003 77.3687Z" fill="url(#paint0_linear)"/>
<defs>
<linearGradient id="paint0_linear" x1="58.1962" y1="43.5072" x2="58.1962" y2="90.2127" gradientUnits="userSpaceOnUse">
<stop stop-color="#002D8B"/>
<stop offset="1" stop-color="#17CFFF"/>
</linearGradient>
</defs>
</svg>
