<svg width="116" height="117" viewBox="0 0 116 117" fill="none" xmlns="http://www.w3.org/2000/svg">
<ellipse cx="58" cy="58.3227" rx="58" ry="57.6862" fill="white"/>
<path d="M58.199 38.7689C42.5232 38.7689 29.7695 51.5226 29.7695 67.1984C29.7695 82.8741 42.5232 95.6278 58.199 95.6278C73.8747 95.6278 86.6284 82.8741 86.6284 67.1984C86.6284 61.5162 84.9469 56.2215 82.0632 51.7741L80.9599 52.8774L80.2357 53.6017H79.2121H77.0393L73.6618 56.9791C75.6037 59.9098 76.7399 63.4197 76.7399 67.1984C76.7399 77.4379 68.4385 85.7393 58.199 85.7393C47.9594 85.7393 39.658 77.4379 39.658 67.1984C39.658 56.9588 47.9594 48.6574 58.199 48.6574C61.9776 48.6574 65.4875 49.7937 68.4182 51.7355L71.7957 48.3581V46.1853V45.1617L72.5199 44.4374L73.6184 43.339C69.1735 40.454 63.8812 38.7689 58.199 38.7689ZM80.4481 40.005L74.2678 46.1853V49.3817L57.325 66.3244C57.2064 66.4383 57.1117 66.5748 57.0465 66.7257C56.9812 66.8767 56.9467 67.0391 56.9451 67.2036C56.9434 67.368 56.9746 67.5312 57.0367 67.6834C57.0989 67.8357 57.1908 67.974 57.3071 68.0903C57.4234 68.2066 57.5617 68.2985 57.7139 68.3606C57.8662 68.4228 58.0293 68.454 58.1938 68.4523C58.3582 68.4506 58.5207 68.4161 58.6716 68.3509C58.8226 68.2857 58.959 68.1909 59.0729 68.0723L76.0157 51.1296H79.2121L85.3924 44.9492H80.4481V40.005ZM58.199 56.0738C52.0656 56.0738 47.0744 61.065 47.0744 67.1984C47.0744 73.3317 52.0656 78.3229 58.199 78.3229C64.3323 78.3229 69.3236 73.3317 69.3236 67.1984C69.3236 65.484 68.9222 63.867 68.2275 62.4159L60.8208 69.8202C60.1212 70.521 59.1891 70.9066 58.199 70.9066C57.2089 70.9066 56.2768 70.521 55.5772 69.8202C54.8763 69.1206 54.4908 68.1885 54.4908 67.1984C54.4908 66.2083 54.8763 65.2762 55.5772 64.5766L62.9839 57.1698C61.534 56.4715 59.9134 56.0738 58.199 56.0738Z" fill="url(#paint0_linear)"/>
<defs>
<linearGradient id="paint0_linear" x1="58.199" y1="38.7689" x2="58.199" y2="95.6278" gradientUnits="userSpaceOnUse">
<stop stop-color="#002D8B"/>
<stop offset="1" stop-color="#15C2EF"/>
</linearGradient>
</defs>
</svg>
